<svg xmlns="http://www.w3.org/2000/svg" xmlns:xlink="http://www.w3.org/1999/xlink" version="1.1" x="0px" y="0px" viewBox="0 0 100 125" style="enable-background:new 0 0 100 100;" xml:space="preserve"><g><path d="M25,42.4c1.7,0,3.3-0.7,4.4-1.9l6.5,3.6c-0.1,0.5-0.2,1-0.2,1.5c0,3.3,2.7,6,6,6s6-2.7,6-6   c0-1.2-0.4-2.4-1-3.3l8.9-9.9c0.8,0.4,1.8,0.7,2.8,0.7s1.9-0.2,2.8-0.7l8.9,9.9c-0.6,1-1,2.1-1,3.3c0,3.3,2.7,6,6,6s6-2.7,6-6   s-2.7-6-6-6c-1,0-1.9,0.2-2.8,0.7l-8.9-9.9c0.6-1,1-2.1,1-3.3c0-3.3-2.7-6-6-6s-6,2.7-6,6c0,1.2,0.4,2.4,1,3.3l-8.9,9.9   c-0.8-0.4-1.8-0.7-2.8-0.7c-1.7,0-3.3,0.7-4.4,1.9l-6.5-3.6c0.1-0.5,0.2-1,0.2-1.5c0-3.3-2.7-6-6-6s-6,2.7-6,6S21.7,42.4,25,42.4z    M78,45.6c0,1.7-1.4,3-3,3s-3-1.4-3-3c0-1.7,1.4-3,3-3S78,44,78,45.6z M58.3,24c1.7,0,3,1.4,3,3c0,1.7-1.4,3-3,3s-3-1.4-3-3   S56.7,24,58.3,24z M41.7,42.6c1.7,0,3,1.4,3,3c0,1.7-1.4,3-3,3s-3-1.4-3-3C38.6,44,40,42.6,41.7,42.6z M25,33.3c1.7,0,3,1.4,3,3   c0,1.7-1.4,3-3,3s-3-1.4-3-3S23.3,33.3,25,33.3z"/><path d="M9.8,79h80.3c0.8,0,1.5-0.7,1.5-1.5S91,76,90.2,76H9.8c-0.8,0-1.5,0.7-1.5,1.5S9,79,9.8,79z"/>
<style type="text/css">
    path {
        fill: #676468;
    }
</style>
<path d="M20,73.4h10c0.8,0,1.5-0.7,1.5-1.5v-20c0-0.8-0.7-1.5-1.5-1.5H20c-0.8,0-1.5,0.7-1.5,1.5v20   C18.5,72.7,19.2,73.4,20,73.4z M21.5,53.4h7v17h-7V53.4z"/>
<path d="M36.7,55.4c-0.8,0-1.5,0.7-1.5,1.5v15c0,0.8,0.7,1.5,1.5,1.5h10c0.8,0,1.5-0.7,1.5-1.5v-15   c0-0.8-0.7-1.5-1.5-1.5H36.7z M45.2,70.4h-7v-12h7V70.4z"/><path d="M53.3,40.4c-0.8,0-1.5,0.7-1.5,1.5v30c0,0.8,0.7,1.5,1.5,1.5h10c0.8,0,1.5-0.7,1.5-1.5v-30   c0-0.8-0.7-1.5-1.5-1.5H53.3z M61.8,70.4h-7v-27h7V70.4z"/><path d="M79.8,60.4h-10c-0.8,0-1.5,0.7-1.5,1.5v10c0,0.8,0.7,1.5,1.5,1.5h10c0.8,0,1.5-0.7,1.5-1.5v-10   C81.3,61.1,80.6,60.4,79.8,60.4z M78.3,70.4h-7v-7h7V70.4z"/></g>
</svg>