<svg xmlns="http://www.w3.org/2000/svg" xmlns:xlink="http://www.w3.org/1999/xlink" version="1.1" x="0px" y="0px" viewBox="0 0 500 625" enable-background="new 0 0 500 500" xml:space="preserve"><g><g><g><path d="M189.1,162.1c-13.4,14.2-26.7,28.5-40.1,42.7c-21.2,22.6-42.4,45.2-63.6,67.8c-4.9,5.3-9.9,10.5-14.8,15.8     c-5.9,6.2-1.8,17.1,7.1,17.1c11.4,0,22.9,0,34.3,0c27.5,0,54.9,0,82.4,0c33,0,66.1,0,99.1,0c28.7,0,57.4,0,86.2,0     c13.9,0,28,0.6,41.9,0c0.2,0,0.4,0,0.6,0c5.4,0,10-4.6,10-10c0-24,0-48,0-72.1c0-38.1,0-76.2,0-114.4c0-8.8,0-17.6,0-26.4     c0-12.9-20-12.9-20,0c0,24,0,48,0,72.1c0,38.1,0,76.2,0,114.4c0,8.8,0,17.6,0,26.4c3.3-3.3,6.7-6.7,10-10c-11.4,0-22.9,0-34.3,0     c-27.5,0-54.9,0-82.4,0c-33,0-66.1,0-99.1,0c-28.7,0-57.4,0-86.2,0c-9.5,0-18.9,0-28.4,0c-4.4,0-9.1-0.4-13.5,0     c-0.2,0-0.4,0-0.6,0c2.4,5.7,4.7,11.4,7.1,17.1c13.4-14.2,26.7-28.5,40.1-42.7c21.2-22.6,42.4-45.2,63.6-67.8     c4.9-5.3,9.9-10.5,14.8-15.8C212,166.8,197.9,152.6,189.1,162.1L189.1,162.1z"/></g></g><g><g><path d="M207.9,410.6c-13.9-13.8-27.8-27.6-41.7-41.4c-22-21.9-44.1-43.8-66.1-65.7c-5.1-5.1-10.2-10.1-15.3-15.2     c-9.1-9.1-23.3,5.1-14.1,14.1c13.9,13.8,27.8,27.6,41.7,41.4c22,21.9,44.1,43.8,66.1,65.7c5.1,5.1,10.2,10.1,15.3,15.2     C202.9,433.8,217,419.7,207.9,410.6L207.9,410.6z"/></g></g></g><text x="0" y="515" fill="#000000" font-size="5px" font-weight="bold" font-family="'Helvetica Neue', Helvetica, Arial-Unicode, Arial, Sans-serif">Created by Neha Tyagi</text><text x="0" y="520" fill="#000000" font-size="5px" font-weight="bold" font-family="'Helvetica Neue', Helvetica, Arial-Unicode, Arial, Sans-serif">from the Noun Project</text></svg>