<svg xmlns="http://www.w3.org/2000/svg" xmlns:xlink="http://www.w3.org/1999/xlink" version="1.0" x="0px" y="0px" viewBox="0 0 350 437.5" enable-background="new 0 0 350 350" xml:space="preserve">
<style type="text/css">
    path {
        fill: #787579;
    }
</style>
<g><path d="M108,123.8c-21.3,0-38.5-17.3-38.5-38.5S86.8,46.8,108,46.8s38.5,17.3,38.5,38.5S129.3,123.8,108,123.8z M108,61.8   c-13,0-23.5,10.6-23.5,23.5s10.6,23.5,23.5,23.5s23.5-10.6,23.5-23.5S121,61.8,108,61.8z"/><path d="M108,214.9c-21.3,0-38.5-17.3-38.5-38.5s17.3-38.5,38.5-38.5s38.5,17.3,38.5,38.5S129.3,214.9,108,214.9z M108,152.8   c-13,0-23.5,10.6-23.5,23.5s10.6,23.5,23.5,23.5s23.5-10.6,23.5-23.5S121,152.8,108,152.8z"/><path d="M108.1,191.6L108.1,191.6c-8.4,0-15.2-6.8-15.2-15.2v0c0-8.4,6.8-15.2,15.2-15.2h0c8.4,0,15.2,6.8,15.2,15.2v0   C123.3,184.8,116.5,191.6,108.1,191.6z"/><path d="M108,303.2c-21.3,0-38.5-17.3-38.5-38.5s17.3-38.5,38.5-38.5s38.5,17.3,38.5,38.5S129.3,303.2,108,303.2z M108,241.2   c-13,0-23.5,10.6-23.5,23.5s10.6,23.5,23.5,23.5s23.5-10.6,23.5-23.5S121,241.2,108,241.2z"/><path d="M275.5,89.2H167c-2.8,0-5-2.2-5-5s2.2-5,5-5h108.5c2.8,0,5,2.2,5,5S278.3,89.2,275.5,89.2z"/><path d="M275.5,182.2H167c-2.8,0-5-2.2-5-5s2.2-5,5-5h108.5c2.8,0,5,2.2,5,5S278.3,182.2,275.5,182.2z"/><path d="M275.5,269.2H167c-2.8,0-5-2.2-5-5s2.2-5,5-5h108.5c2.8,0,5,2.2,5,5S278.3,269.2,275.5,269.2z"/></g>
</svg>