<svg xmlns="http://www.w3.org/2000/svg" xmlns:xlink="http://www.w3.org/1999/xlink" version="1.1" x="0px" y="0px" viewBox="0 0 512 640" enable-background="new 0 0 512 512" xml:space="preserve"><g><path d="M432,360H80c-13.234,0-24-10.766-24-24V176c0-13.234,10.766-24,24-24h352c13.234,0,24,10.766,24,24v160   C456,349.234,445.234,360,432,360z M80,168c-4.411,0-8,3.589-8,8v160c0,4.411,3.589,8,8,8h352c4.411,0,8-3.589,8-8V176   c0-4.411-3.589-8-8-8H80z"/></g><g><g><rect x="224" y="200" width="64" height="16"/></g><g><rect x="224" y="296" width="64" height="16"/></g><g><rect x="248" y="208" width="16" height="96"/></g></g></svg>