<svg xmlns:dc="http://purl.org/dc/elements/1.1/" xmlns:cc="http://creativecommons.org/ns#" xmlns:rdf="http://www.w3.org/1999/02/22-rdf-syntax-ns#" xmlns:svg="http://www.w3.org/2000/svg" xmlns="http://www.w3.org/2000/svg" xmlns:sodipodi="http://sodipodi.sourceforge.net/DTD/sodipodi-0.dtd" xmlns:inkscape="http://www.inkscape.org/namespaces/inkscape" version="1.1" x="0px" y="0px" viewBox="0 0 100 125">
<style type="text/css">
    path {
        fill: #787579;
    }
</style>
<g transform="translate(0,-952.36218)"><path style="text-indent:0;text-transform:none;direction:ltr;block-progression:tb;baseline-shift:baseline;color:#000000;enable-background:accumulate;" d="m 49.973188,989.92464 a 0.99873579,1.001068 0 0 0 -0.875,0.5625 l -3.5312,6.99995 -7.75,1.1875 a 0.99873579,1.001068 0 0 0 -0.5313,1.71881 l 5.5625,5.5 -1.2812,7.75 a 0.99873579,1.001068 0 0 0 0.9687,1.1562 0.99873579,1.001068 0 0 0 0.5,-0.125 l 6.9375,-3.5937 6.9375,3.5937 a 0.99873579,1.001068 0 0 0 1.4687,-1.0312 l -1.2812,-7.75 5.5625,-5.5 a 0.99873579,1.001068 0 0 0 -0.5313,-1.71881 l -7.75,-1.1875 -3.5312,-6.99995 a 0.99873579,1.001068 0 0 0 -0.875,-0.5625 z m 30,0 a 0.99873579,1.001068 0 0 0 -0.875,0.5625 l -3.5312,6.99995 -7.75,1.1875 a 0.99873579,1.001068 0 0 0 -0.5313,1.71881 l 5.5625,5.5 -1.2812,7.75 a 0.99873579,1.001068 0 0 0 0.9687,1.1562 0.99873579,1.001068 0 0 0 0.5,-0.125 l 6.9375,-3.5937 6.9375,3.5937 a 0.99873579,1.001068 0 0 0 1.4687,-1.0312 l -1.2812,-7.75 5.5625,-5.5 a 0.99873579,1.001068 0 0 0 -0.5313,-1.71881 l -7.75,-1.1875 -3.5312,-6.99995 a 0.99873579,1.001068 0 0 0 -0.875,-0.5625 z m -59.9688,0.0625 c -0.363,0 -0.7082,0.17316 -0.875,0.5 l -3.531201,6.99995 -7.7811999,1.1875 c -0.7349,0.1057 -1.0612,1.1993 -0.5313,1.71881 l 5.5936999,5.5 -1.2812,7.75 c -0.094,0.5628 0.3975,1.1409 0.9688,1.1562 0.17,0 0.3187,-0.045 0.4687,-0.125 l 6.968701,-3.5937 7,3.5937 c 0.6556,0.3409 1.5562,-0.3026 1.4376,-1.0312 l -1.2813,-7.75 5.5937,-5.5 c 0.5299,-0.51951 0.1724,-1.61311 -0.5624,-1.71881 l -7.75,-1.1875 -3.5313,-6.99995 c -0.1668,-0.32684 -0.5432,-0.5 -0.9063,-0.5 z m 29.9688,3.15625 2.8438,5.7187 a 0.99873579,1.001068 0 0 0 0.75,0.5313 l 6.2812,0.96871 -4.5312,4.4688 a 0.99873579,1.001068 0 0 0 -0.2813,0.875 l 1.0313,6.2812 -5.625,-2.9062 a 0.99873579,1.001068 0 0 0 -0.9376,0 l -5.625,2.9062 1.0313,-6.2812 a 0.99873579,1.001068 0 0 0 -0.2813,-0.875 l -4.5312,-4.4688 6.2812,-0.96871 a 0.99873579,1.001068 0 0 0 0.75,-0.5313 l 2.8438,-5.7187 z m 30,0 2.8438,5.7187 a 0.99873579,1.001068 0 0 0 0.75,0.5313 l 6.2812,0.96871 -4.5312,4.4688 a 0.99873579,1.001068 0 0 0 -0.2813,0.875 l 1.0313,6.2812 -5.625,-2.9062 a 0.99873579,1.001068 0 0 0 -0.9376,0 l -5.625,2.9062 1.0313,-6.2812 a 0.99873579,1.001068 0 0 0 -0.2813,-0.875 l -4.5312,-4.4688 6.2812,-0.96871 a 0.99873579,1.001068 0 0 0 0.75,-0.5313 l 2.8438,-5.7187 z" fill="#000000" fill-opacity="1" stroke="none" marker="none" visibility="visible" display="inline" overflow="visible"/></g>
</svg>