<svg xmlns="http://www.w3.org/2000/svg" xmlns:xlink="http://www.w3.org/1999/xlink" version="1.1" x="0px" y="0px" viewBox="0 0 100 125" style="enable-background:new 0 0 100 100;" xml:space="preserve">
<style type="text/css">
	.st0{fill-rule:evenodd;clip-rule:evenodd;}
</style>
<g>
<g>
<path fill="white" class="st0" d="M83,36.2c0-0.8-0.2-1.6-0.8-2.2L65.9,17.7c-0.6-0.6-1.4-0.8-2.1-0.8v0h-0.1c0,0,0,0,0,0H22.4    c-3,0-5.5,2.5-5.5,5.5v55.1c0,3,2.5,5.5,5.5,5.5h55.1c3,0,5.5-2.5,5.5-5.5L83,36.2L83,36.2z M41.7,22.4h16.5V39H41.7V22.4z     M63.8,77.6H36.2V58.3h27.6V77.6z M77.6,77.6h-8.3V58.3c0-3-2.5-5.5-5.5-5.5H36.2c-3,0-5.5,2.5-5.5,5.5v19.3h-8.3V22.4h13.8V39    c0,3,2.5,5.5,5.5,5.5h16.5c3,0,5.5-2.5,5.5-5.5V23.7l13.8,13.8V77.6z"/></g></g>
</svg>