<svg xmlns="http://www.w3.org/2000/svg" xmlns:xlink="http://www.w3.org/1999/xlink" version="1.0" x="0px" y="0px" viewBox="0 0 350 437.5" enable-background="new 0 0 350 350" xml:space="preserve"><g><g><path d="M77.5,182.5h-46c-4.1,0-7.5-3.4-7.5-7.5s3.4-7.5,7.5-7.5h46c4.1,0,7.5,3.4,7.5,7.5S81.6,182.5,77.5,182.5z"/>
<style type="text/css">
    path {
        fill: #787579;
    }
</style>
</g><g><path d="M318.5,182.5h-76c-4.1,0-7.5-3.4-7.5-7.5s3.4-7.5,7.5-7.5h76c4.1,0,7.5,3.4,7.5,7.5S322.6,182.5,318.5,182.5z"/></g><g><path d="M107.8,207.2c-17.7,0-32.2-14.4-32.2-32.2s14.4-32.2,32.2-32.2c17.7,0,32.2,14.4,32.2,32.2S125.5,207.2,107.8,207.2z     M107.8,152.8c-12.2,0-22.2,9.9-22.2,22.2s9.9,22.2,22.2,22.2h0c12.2,0,22.2-9.9,22.2-22.2S120,152.8,107.8,152.8z"/></g><g><path d="M212.8,207.2c-17.7,0-32.2-14.4-32.2-32.2s14.4-32.2,32.2-32.2S245,157.3,245,175S230.6,207.2,212.8,207.2z M212.8,152.8    c-12.2,0-22.2,9.9-22.2,22.2s9.9,22.2,22.2,22.2S235,187.2,235,175S225,152.8,212.8,152.8z"/></g><g><path d="M187.5,170.5h-53c-2.8,0-5-2.2-5-5s2.2-5,5-5h53c2.8,0,5,2.2,5,5S190.3,170.5,187.5,170.5z"/></g><g><path d="M187.5,191h-53c-2.8,0-5-2.2-5-5s2.2-5,5-5h53c2.8,0,5,2.2,5,5S190.3,191,187.5,191z"/></g></g>
</svg>